<?xml version="1.0" encoding="UTF-8"?>
<!DOCTYPE svg PUBLIC "-//W3C//DTD SVG 1.1//EN" "http://www.w3.org/Graphics/SVG/1.1/DTD/svg11.dtd">
<svg version="1.1" xmlns="http://www.w3.org/2000/svg" xmlns:xlink="http://www.w3.org/1999/xlink" x="0" y="0" width="8192" height="8192" viewBox="0, 0, 8192, 8192">
  <g id="Layer_1">
    <g>
      <path d="M4096.5,8192.5 C1834.342,8192.5 0.5,6358.658 0.5,4096.5 C0.5,1834.342 1834.342,0.5 4096.5,0.5 C6358.658,0.5 8192.5,1834.342 8192.5,4096.5 C8192.5,6358.658 6358.658,8192.5 4096.5,8192.5 z" fill="#515151"/>
      <path d="M4096.5,8192.5 C1834.342,8192.5 0.5,6358.658 0.5,4096.5 C0.5,1834.342 1834.342,0.5 4096.5,0.5 C6358.658,0.5 8192.5,1834.342 8192.5,4096.5 C8192.5,6358.658 6358.658,8192.5 4096.5,8192.5 z" fill-opacity="0" stroke="#515151" stroke-width="1"/>
    </g>
    <path d="M2234.682,2234.682 L5958.318,2234.682 L5958.318,5958.318 L2234.682,5958.318 L2234.682,2234.682 z" fill-opacity="0" stroke="#FFFFFF" stroke-width="10"/>
    <path d="M3165.591,3165.591 L5027.409,3165.591 L5027.409,5027.409 L3165.591,5027.409 L3165.591,3165.591 z" fill-opacity="0" stroke="#FFFFFF" stroke-width="10"/>
    <path d="M1303.773,1303.773 L6889.227,1303.773 L6889.227,6889.227 L1303.773,6889.227 L1303.773,1303.773 z" fill-opacity="0" stroke="#FFFFFF" stroke-width="10"/>
    <path d="M4096.5,0.5 L4096.5,8192.5" fill-opacity="0" stroke="#B8B8B8" stroke-width="10"/>
    <path d="M7820.136,2399.005 L7820.136,5801.15" fill-opacity="0" stroke="#FFFFFF" stroke-width="10"/>
    <path d="M372.864,2399.005 L372.864,5801.15" fill-opacity="0" stroke="#FFFFFF" stroke-width="10"/>
    <path d="M2392.028,7820.136 L5799.822,7820.136" fill-opacity="0" stroke="#FFFFFF" stroke-width="10"/>
    <path d="M2392.028,372.864 L5799.822,372.864" fill-opacity="0" stroke="#FFFFFF" stroke-width="10"/>
    <path d="M0.5,4096.5 L8192.5,4096.5" fill-opacity="0" stroke="#B8B8B8" stroke-width="10"/>
    <g>
      <text transform="matrix(1, 0, 0, 1, 3988.073, 3069.114)">
        <tspan x="-70.82" y="33.206" font-family="LucidaGrande" font-size="112" fill="#FFFFFF">50</tspan>
      </text>
      <path d="M3930.87,3102.649 L3930.87,3093.024 Q3938.909,3096.25 3946.183,3096.25 Q3954.167,3096.25 3958.733,3091.547 Q3963.3,3086.844 3963.3,3078.586 Q3963.3,3060.375 3938.198,3060.375 Q3935.354,3060.375 3932.237,3060.758 L3932.237,3021.383 L3973.198,3021.383 L3973.198,3030.79 L3941.698,3030.79 L3941.698,3052.118 Q3957.284,3052.118 3966.034,3059.282 Q3974.784,3066.446 3974.784,3079.133 Q3974.784,3090.946 3966.827,3097.645 Q3958.87,3104.344 3944.761,3104.344 Q3938.636,3104.344 3930.87,3102.649 z M4023.183,3104.344 Q4010.659,3104.344 4002.921,3092.559 Q3995.183,3080.774 3995.183,3061.797 Q3995.183,3042.657 4002.976,3031.008 Q4010.769,3019.36 4023.511,3019.36 Q4036.253,3019.36 4044.046,3031.008 Q4051.839,3042.657 4051.839,3061.633 Q4051.839,3081.102 4044.046,3092.723 Q4036.253,3104.344 4023.183,3104.344 z M4023.292,3096.25 Q4040.409,3096.25 4040.409,3061.469 Q4040.409,3027.454 4023.511,3027.454 Q4006.667,3027.454 4006.667,3061.797 Q4006.667,3096.25 4023.292,3096.25 z" fill-opacity="0" stroke="#FFFFFF" stroke-width="10"/>
    </g>
    <g>
      <text transform="matrix(1, 0, 0, 1, 3936.948, 2201.341)">
        <tspan x="-106.23" y="-16.794" font-family="LucidaGrande" font-size="112" fill="#FFFFFF">100</tspan>
      </text>
      <path d="M3847.561,2184.548 L3847.561,2176.454 L3863.748,2176.454 L3863.748,2112.579 L3847.561,2116.626 L3847.561,2108.313 L3874.576,2101.587 L3874.576,2176.454 L3890.764,2176.454 L3890.764,2184.548 z M3936.647,2186.571 Q3924.123,2186.571 3916.385,2174.786 Q3908.647,2163.001 3908.647,2144.024 Q3908.647,2124.884 3916.44,2113.235 Q3924.233,2101.587 3936.975,2101.587 Q3949.717,2101.587 3957.51,2113.235 Q3965.303,2124.884 3965.303,2143.86 Q3965.303,2163.329 3957.51,2174.95 Q3949.717,2186.571 3936.647,2186.571 z M3936.756,2178.477 Q3953.873,2178.477 3953.873,2143.696 Q3953.873,2109.68 3936.975,2109.68 Q3920.131,2109.68 3920.131,2144.024 Q3920.131,2178.477 3936.756,2178.477 z M4007.467,2186.571 Q3994.944,2186.571 3987.205,2174.786 Q3979.467,2163.001 3979.467,2144.024 Q3979.467,2124.884 3987.26,2113.235 Q3995.053,2101.587 4007.795,2101.587 Q4020.537,2101.587 4028.33,2113.235 Q4036.123,2124.884 4036.123,2143.86 Q4036.123,2163.329 4028.33,2174.95 Q4020.537,2186.571 4007.467,2186.571 z M4007.576,2178.477 Q4024.694,2178.477 4024.694,2143.696 Q4024.694,2109.68 4007.795,2109.68 Q3990.951,2109.68 3990.951,2144.024 Q3990.951,2178.477 4007.576,2178.477 z" fill-opacity="0" stroke="#FFFFFF" stroke-width="10"/>
    </g>
    <g>
      <text transform="matrix(1, 0, 0, 1, 3936.948, 1257.296)">
        <tspan x="-106.23" y="-16.794" font-family="LucidaGrande" font-size="112" fill="#FFFFFF">150</tspan>
      </text>
      <path d="M3847.561,1240.503 L3847.561,1232.409 L3863.748,1232.409 L3863.748,1168.534 L3847.561,1172.581 L3847.561,1164.268 L3874.576,1157.542 L3874.576,1232.409 L3890.764,1232.409 L3890.764,1240.503 z M3915.155,1240.831 L3915.155,1231.206 Q3923.194,1234.432 3930.467,1234.432 Q3938.451,1234.432 3943.018,1229.729 Q3947.584,1225.026 3947.584,1216.768 Q3947.584,1198.557 3922.483,1198.557 Q3919.639,1198.557 3916.522,1198.94 L3916.522,1159.565 L3957.483,1159.565 L3957.483,1168.971 L3925.983,1168.971 L3925.983,1190.3 Q3941.569,1190.3 3950.319,1197.464 Q3959.069,1204.628 3959.069,1217.315 Q3959.069,1229.128 3951.112,1235.827 Q3943.155,1242.526 3929.045,1242.526 Q3922.92,1242.526 3915.155,1240.831 z M4007.467,1242.526 Q3994.944,1242.526 3987.205,1230.741 Q3979.467,1218.956 3979.467,1199.979 Q3979.467,1180.839 3987.26,1169.19 Q3995.053,1157.542 4007.795,1157.542 Q4020.537,1157.542 4028.33,1169.19 Q4036.123,1180.839 4036.123,1199.815 Q4036.123,1219.284 4028.33,1230.905 Q4020.537,1242.526 4007.467,1242.526 z M4007.576,1234.432 Q4024.694,1234.432 4024.694,1199.651 Q4024.694,1165.635 4007.795,1165.635 Q3990.951,1165.635 3990.951,1199.979 Q3990.951,1234.432 4007.576,1234.432 z" fill-opacity="0" stroke="#FFFFFF" stroke-width="10"/>
    </g>
    <g>
      <text transform="matrix(1, 0, 0, 1, 3936.948, 326.387)">
        <tspan x="-106.23" y="-16.794" font-family="LucidaGrande" font-size="112" fill="#FFFFFF">200</tspan>
      </text>
      <path d="M3840.014,309.594 L3840.014,300.133 Q3844.717,289.14 3859.045,276.179 L3865.225,270.656 Q3877.147,259.883 3877.147,249.273 Q3877.147,242.492 3873.073,238.609 Q3868.998,234.726 3861.889,234.726 Q3853.467,234.726 3842.037,241.234 L3842.037,231.719 Q3852.811,226.633 3863.42,226.633 Q3874.795,226.633 3881.686,232.758 Q3888.576,238.883 3888.576,249 Q3888.576,256.273 3885.104,261.906 Q3881.631,267.539 3872.17,275.578 L3868.014,279.133 Q3855.053,290.125 3853.03,300.133 L3888.194,300.133 L3888.194,309.594 z M3936.647,311.617 Q3924.123,311.617 3916.385,299.832 Q3908.647,288.047 3908.647,269.07 Q3908.647,249.929 3916.44,238.281 Q3924.233,226.633 3936.975,226.633 Q3949.717,226.633 3957.51,238.281 Q3965.303,249.929 3965.303,268.906 Q3965.303,288.375 3957.51,299.996 Q3949.717,311.617 3936.647,311.617 z M3936.756,303.523 Q3953.873,303.523 3953.873,268.742 Q3953.873,234.726 3936.975,234.726 Q3920.131,234.726 3920.131,269.07 Q3920.131,303.523 3936.756,303.523 z M4007.467,311.617 Q3994.944,311.617 3987.205,299.832 Q3979.467,288.047 3979.467,269.07 Q3979.467,249.929 3987.26,238.281 Q3995.053,226.633 4007.795,226.633 Q4020.537,226.633 4028.33,238.281 Q4036.123,249.929 4036.123,268.906 Q4036.123,288.375 4028.33,299.996 Q4020.537,311.617 4007.467,311.617 z M4007.576,303.523 Q4024.694,303.523 4024.694,268.742 Q4024.694,234.726 4007.795,234.726 Q3990.951,234.726 3990.951,269.07 Q3990.951,303.523 4007.576,303.523 z" fill-opacity="0" stroke="#FFFFFF" stroke-width="10"/>
    </g>
    <g>
      <text transform="matrix(1, 0, 0, 1, 4096, 8001.525)">
        <tspan x="-523.633" y="-14.657" font-family="LucidaGrande" font-size="100" fill="#FFFFFF">Wabbit Wanch Design</tspan>
      </text>
      <path d="M3591.068,7986.868 L3572.465,7914.603 L3582.328,7914.603 L3597.123,7971.683 L3610.746,7914.603 L3620.609,7914.603 L3633.5,7970.901 L3649.418,7914.603 L3657.768,7914.603 L3637.504,7986.868 L3627.299,7986.868 L3614.555,7931.155 L3601.225,7986.868 z M3694.877,7980.13 Q3686.234,7988.089 3678.227,7988.089 Q3671.635,7988.089 3667.289,7983.963 Q3662.943,7979.837 3662.943,7973.538 Q3662.943,7964.847 3670.243,7960.184 Q3677.543,7955.521 3691.166,7955.521 L3693.461,7955.521 L3693.461,7949.124 Q3693.461,7939.896 3683.988,7939.896 Q3676.371,7939.896 3667.533,7944.583 L3667.533,7936.624 Q3677.25,7932.669 3685.746,7932.669 Q3694.633,7932.669 3698.856,7936.673 Q3703.08,7940.677 3703.08,7949.124 L3703.08,7973.147 Q3703.08,7981.399 3708.158,7981.399 Q3708.793,7981.399 3710.014,7981.204 L3710.697,7986.526 Q3707.426,7988.089 3703.471,7988.089 Q3696.732,7988.089 3694.877,7980.13 z M3693.461,7974.905 L3693.461,7961.185 L3690.238,7961.087 Q3682.328,7961.087 3677.445,7964.09 Q3672.562,7967.093 3672.562,7971.976 Q3672.562,7975.442 3675.004,7977.835 Q3677.445,7980.228 3680.961,7980.228 Q3686.967,7980.228 3693.461,7974.905 z M3722.758,7987.454 L3722.758,7909.769 L3732.377,7909.769 L3732.377,7943.802 Q3738.285,7932.669 3750.102,7932.669 Q3759.672,7932.669 3765.165,7939.651 Q3770.658,7946.634 3770.658,7958.743 Q3770.658,7971.927 3764.433,7980.008 Q3758.207,7988.089 3748.051,7988.089 Q3738.627,7988.089 3732.377,7980.862 L3731.205,7987.454 z M3732.377,7974.222 Q3739.799,7980.862 3746.537,7980.862 Q3760.404,7980.862 3760.404,7959.72 Q3760.404,7941.067 3748.1,7941.067 Q3740.043,7941.067 3732.377,7949.808 z M3785.697,7987.454 L3785.697,7909.769 L3795.316,7909.769 L3795.316,7943.802 Q3801.225,7932.669 3813.041,7932.669 Q3822.611,7932.669 3828.104,7939.651 Q3833.598,7946.634 3833.598,7958.743 Q3833.598,7971.927 3827.372,7980.008 Q3821.146,7988.089 3810.99,7988.089 Q3801.566,7988.089 3795.316,7980.862 L3794.145,7987.454 z M3795.316,7974.222 Q3802.738,7980.862 3809.477,7980.862 Q3823.344,7980.862 3823.344,7959.72 Q3823.344,7941.067 3811.039,7941.067 Q3802.982,7941.067 3795.316,7949.808 z M3848.637,7986.868 L3848.637,7933.841 L3858.256,7933.841 L3858.256,7986.868 z M3848.637,7924.222 L3848.637,7914.603 L3858.256,7914.603 L3858.256,7924.222 z M3893.461,7988.089 Q3886.137,7988.089 3882.035,7983.89 Q3877.934,7979.69 3877.934,7972.22 L3877.934,7941.067 L3871.293,7941.067 L3871.293,7933.841 L3877.934,7933.841 L3877.934,7924.222 L3887.553,7923.294 L3887.553,7933.841 L3901.42,7933.841 L3901.42,7941.067 L3887.553,7941.067 L3887.553,7970.462 Q3887.553,7980.862 3896.537,7980.862 Q3898.441,7980.862 3901.176,7980.228 L3901.176,7986.868 Q3896.732,7988.089 3893.461,7988.089 z M3955.668,7986.868 L3937.064,7914.603 L3946.928,7914.603 L3961.723,7971.683 L3975.346,7914.603 L3985.209,7914.603 L3998.1,7970.901 L4014.018,7914.603 L4022.367,7914.603 L4002.104,7986.868 L3991.898,7986.868 L3979.154,7931.155 L3965.824,7986.868 z M4059.477,7980.13 Q4050.834,7988.089 4042.826,7988.089 Q4036.234,7988.089 4031.889,7983.963 Q4027.543,7979.837 4027.543,7973.538 Q4027.543,7964.847 4034.843,7960.184 Q4042.143,7955.521 4055.766,7955.521 L4058.061,7955.521 L4058.061,7949.124 Q4058.061,7939.896 4048.588,7939.896 Q4040.971,7939.896 4032.133,7944.583 L4032.133,7936.624 Q4041.85,7932.669 4050.346,7932.669 Q4059.232,7932.669 4063.456,7936.673 Q4067.68,7940.677 4067.68,7949.124 L4067.68,7973.147 Q4067.68,7981.399 4072.758,7981.399 Q4073.393,7981.399 4074.613,7981.204 L4075.297,7986.526 Q4072.025,7988.089 4068.07,7988.089 Q4061.332,7988.089 4059.477,7980.13 z M4058.061,7974.905 L4058.061,7961.185 L4054.838,7961.087 Q4046.928,7961.087 4042.045,7964.09 Q4037.162,7967.093 4037.162,7971.976 Q4037.162,7975.442 4039.604,7977.835 Q4042.045,7980.228 4045.561,7980.228 Q4051.566,7980.228 4058.061,7974.905 z M4087.357,7986.868 L4087.357,7933.841 L4096.977,7933.841 L4096.977,7943.802 Q4104.594,7932.669 4115.629,7932.669 Q4122.514,7932.669 4126.615,7937.039 Q4130.717,7941.409 4130.717,7948.782 L4130.717,7986.868 L4121.098,7986.868 L4121.098,7951.907 Q4121.098,7945.999 4119.364,7943.484 Q4117.631,7940.97 4113.627,7940.97 Q4104.789,7940.97 4096.977,7952.542 L4096.977,7986.868 z M4170.121,7988.089 Q4159.379,7988.089 4152.299,7980.13 Q4145.219,7972.171 4145.219,7960.062 Q4145.219,7947.122 4152.226,7939.896 Q4159.232,7932.669 4171.781,7932.669 Q4177.982,7932.669 4185.648,7934.378 L4185.648,7942.435 Q4177.494,7940.042 4172.367,7940.042 Q4164.994,7940.042 4160.526,7945.584 Q4156.059,7951.126 4156.059,7960.354 Q4156.059,7969.29 4160.648,7974.808 Q4165.238,7980.325 4172.66,7980.325 Q4179.252,7980.325 4186.234,7976.956 L4186.234,7985.257 Q4176.908,7988.089 4170.121,7988.089 z M4200.639,7986.868 L4200.639,7909.769 L4210.258,7909.769 L4210.258,7943.802 Q4217.875,7932.669 4228.91,7932.669 Q4235.795,7932.669 4239.896,7937.039 Q4243.998,7941.409 4243.998,7948.782 L4243.998,7986.868 L4234.379,7986.868 L4234.379,7951.907 Q4234.379,7945.999 4232.646,7943.484 Q4230.912,7940.97 4226.908,7940.97 Q4218.07,7940.97 4210.258,7952.542 L4210.258,7986.868 z M4294.047,7986.868 L4294.047,7914.603 L4318.07,7914.603 Q4328.812,7914.603 4335.429,7916.995 Q4342.045,7919.388 4346.879,7925.101 Q4354.545,7934.183 4354.545,7949.026 Q4354.545,7967.044 4345.023,7976.956 Q4335.502,7986.868 4318.217,7986.868 z M4304.301,7979.202 L4317.436,7979.202 Q4331.498,7979.202 4337.357,7971.634 Q4343.656,7963.577 4343.656,7950.003 Q4343.656,7937.259 4337.455,7929.983 Q4333.695,7925.54 4328.471,7923.904 Q4323.246,7922.269 4312.748,7922.269 L4304.301,7922.269 z M4408.109,7985.159 Q4398.441,7988.089 4391.557,7988.089 Q4379.838,7988.089 4372.44,7980.301 Q4365.043,7972.513 4365.043,7960.11 Q4365.043,7948.05 4371.562,7940.335 Q4378.08,7932.62 4388.236,7932.62 Q4397.855,7932.62 4403.104,7939.456 Q4408.354,7946.292 4408.354,7958.89 L4408.305,7961.868 L4374.857,7961.868 Q4376.957,7980.765 4393.363,7980.765 Q4399.369,7980.765 4408.109,7977.542 z M4375.297,7954.642 L4398.686,7954.642 Q4398.686,7939.847 4387.65,7939.847 Q4376.566,7939.847 4375.297,7954.642 z M4439.018,7988.089 Q4432.426,7988.089 4423.002,7985.013 L4423.002,7976.175 Q4432.426,7980.862 4439.408,7980.862 Q4443.559,7980.862 4446.293,7978.616 Q4449.027,7976.37 4449.027,7973.001 Q4449.027,7968.069 4441.361,7964.847 L4435.746,7962.454 Q4423.295,7957.278 4423.295,7947.562 Q4423.295,7940.628 4428.202,7936.648 Q4433.109,7932.669 4441.654,7932.669 Q4446.098,7932.669 4452.641,7933.89 L4454.643,7934.28 L4454.643,7942.288 Q4446.586,7939.896 4441.85,7939.896 Q4432.572,7939.896 4432.572,7946.634 Q4432.572,7950.979 4439.604,7953.958 L4444.242,7955.911 Q4452.104,7959.231 4455.375,7962.918 Q4458.646,7966.604 4458.646,7972.122 Q4458.646,7979.104 4453.129,7983.597 Q4447.611,7988.089 4439.018,7988.089 z M4475.932,7986.868 L4475.932,7933.841 L4485.551,7933.841 L4485.551,7986.868 z M4475.932,7924.222 L4475.932,7914.603 L4485.551,7914.603 L4485.551,7924.222 z M4505.033,8004.495 L4506.156,7996.146 Q4514.506,8000.101 4522.611,8000.101 Q4538.871,8000.101 4538.871,7982.864 L4538.871,7974.515 Q4533.549,7985.647 4521.391,7985.647 Q4511.869,7985.647 4506.254,7978.714 Q4500.639,7971.78 4500.639,7960.013 Q4500.639,7947.903 4507.035,7940.286 Q4513.432,7932.669 4523.588,7932.669 Q4532.475,7932.669 4538.871,7939.896 L4538.871,7933.841 L4548.539,7933.841 L4548.539,7972.415 Q4548.539,7984.866 4547.245,7990.848 Q4545.951,7996.829 4542.387,8000.638 Q4536.088,8007.327 4522.807,8007.327 Q4513.529,8007.327 4505.033,8004.495 z M4538.871,7968.509 L4538.871,7946.487 Q4532.523,7939.896 4525.053,7939.896 Q4518.412,7939.896 4514.652,7945.218 Q4510.893,7950.54 4510.893,7959.817 Q4510.893,7977.249 4523.148,7977.249 Q4531.498,7977.249 4538.871,7968.509 z M4567.191,7986.868 L4567.191,7933.841 L4576.811,7933.841 L4576.811,7943.802 Q4584.428,7932.669 4595.463,7932.669 Q4602.348,7932.669 4606.449,7937.039 Q4610.551,7941.409 4610.551,7948.782 L4610.551,7986.868 L4600.932,7986.868 L4600.932,7951.907 Q4600.932,7945.999 4599.198,7943.484 Q4597.465,7940.97 4593.461,7940.97 Q4584.623,7940.97 4576.811,7952.542 L4576.811,7986.868 z" fill-opacity="0" stroke="#FFFFFF" stroke-width="10"/>
    </g>
  </g>
  <g id="Layer_2">
    <path d="M4096.5,-409.5 L4096.5,8430.5" fill-opacity="0" stroke="#515151" stroke-width="1"/>
    <path d="M-429.5,4096.5 L8360.5,4096.5" fill-opacity="0" stroke="#515151" stroke-width="1"/>
    <g>
      <path d="M3893.25,8173.683 C3893.25,8110.17 4022.807,8035.5 4086.32,8035.5 C4149.833,8035.5 4299.75,8110.17 4299.75,8173.683 z" fill="#000000"/>
      <path d="M3893.25,8173.683 C3893.25,8110.17 4022.807,8035.5 4086.32,8035.5 C4149.833,8035.5 4299.75,8110.17 4299.75,8173.683 z" fill-opacity="0" stroke="#000000" stroke-width="20"/>
    </g>
    <g>
      <path d="M7733.77,2227.102 C7678.766,2258.859 7549.322,2183.994 7517.565,2128.99 C7485.809,2073.987 7475.516,1906.819 7530.52,1875.063 z" fill="#000000"/>
      <path d="M7733.77,2227.102 C7678.766,2258.859 7549.322,2183.994 7517.565,2128.99 C7485.809,2073.987 7475.516,1906.819 7530.52,1875.063 z" fill-opacity="0" stroke="#000000" stroke-width="20"/>
    </g>
    <g>
      <path d="M459.5,2227.102 C514.504,2258.859 643.948,2183.994 675.704,2128.99 C707.461,2073.987 717.753,1906.819 662.75,1875.063 z" fill="#000000"/>
      <path d="M459.5,2227.102 C514.504,2258.859 643.948,2183.994 675.704,2128.99 C707.461,2073.987 717.753,1906.819 662.75,1875.063 z" fill-opacity="0" stroke="#000000" stroke-width="20"/>
    </g>
  </g>
</svg>
